<svg width="23" height="27" viewBox="0 0 23 27" fill="none" xmlns="http://www.w3.org/2000/svg">
<path fill-rule="evenodd" clip-rule="evenodd" d="M2.1813 0.359474C1.6823 -0.119825 0.873265 -0.119825 0.374267 0.359474C-0.124756 0.838749 -0.124756 1.61581 0.374267 2.09508L10.5965 11.9133C11.0955 12.3926 11.9045 12.3926 12.4035 11.9133L22.6259 2.09508C23.1247 1.61581 23.1247 0.838749 22.6259 0.359474C22.1268 -0.119825 21.3177 -0.119825 20.8186 0.359474L11.5 9.30982L2.1813 0.359474ZM2.1813 15.0867C1.6823 14.6074 0.873265 14.6074 0.374267 15.0867C-0.124756 15.566 -0.124756 16.3431 0.374267 16.8224L10.5965 26.6407C11.0955 27.1198 11.9045 27.1198 12.4035 26.6407L22.6259 16.8224C23.1247 16.3431 23.1247 15.566 22.6259 15.0867C22.1268 14.6074 21.3177 14.6074 20.8186 15.0867L11.5 24.0371L2.1813 15.0867Z" fill="white" fill-opacity="0.6"/>
</svg>
