<svg width="16" height="16" viewBox="0 0 16 16" fill="none" xmlns="http://www.w3.org/2000/svg">
<path d="M3.53513 2.33794L3.87525 1.21134C4.01927 0.734311 4.52139 0.465066 4.99511 0.610853L14.8587 3.58591C15.3357 3.72992 15.605 4.23204 15.4592 4.70577L12.4808 14.5711C12.3368 15.0481 11.8347 15.3174 11.3609 15.1716L10.2344 14.8315C9.75225 14.6859 9.4843 14.1703 9.63999 13.6913L11.5871 7.76452L2.09308 12.8554C1.65373 13.0909 1.11073 12.927 0.875141 12.4877L0.308312 11.4306C0.0727229 10.9912 0.236655 10.4482 0.67601 10.2126L10.17 5.12178L4.15592 3.46392C3.66745 3.3303 3.38628 2.82181 3.53513 2.33794Z" fill="black" fill-opacity="0.8"/>
</svg>
